<svg width="36" height="40" viewBox="0 0 36 40" fill="none" xmlns="http://www.w3.org/2000/svg">
<path d="M33.75 0H6.75C4.95979 0 3.2429 0.702379 1.97703 1.95262C0.711159 3.20286 0 4.89856 0 6.66667V33.3333C0 35.1014 0.711159 36.7971 1.97703 38.0474C3.2429 39.2976 4.95979 40 6.75 40H33.75C34.3467 40 34.919 39.7659 35.341 39.3491C35.7629 38.9324 36 38.3671 36 37.7778V2.22222C36 1.63285 35.7629 1.06762 35.341 0.650874C34.919 0.234126 34.3467 0 33.75 0ZM6.75 4.44444H31.5V26.6667H6.75C5.98243 26.6727 5.22152 26.808 4.5 27.0667V6.66667C4.5 6.0773 4.73705 5.51207 5.15901 5.09532C5.58097 4.67857 6.15326 4.44444 6.75 4.44444ZM6.75 35.5556C6.15326 35.5556 5.58097 35.3214 5.15901 34.9047C4.73705 34.4879 4.5 33.9227 4.5 33.3333C4.5 32.744 4.73705 32.1787 5.15901 31.762C5.58097 31.3452 6.15326 31.1111 6.75 31.1111H31.5V35.5556H6.75Z" fill="#222222"/>
</svg>
