<svg width="36" height="40" viewBox="0 0 36 40" fill="none" xmlns="http://www.w3.org/2000/svg">
<path d="M33.9333 3.73333C33.4261 3.3678 32.8397 3.127 32.222 3.03048C31.6042 2.93395 30.9724 2.98442 30.3778 3.17778C28.8092 3.61886 27.1847 3.82848 25.5556 3.8C23.148 3.66932 20.7874 3.08105 18.6 2.06667C15.8978 0.81696 12.975 0.114569 10 0C3.57781 0 1.11115 2.22222 0.666704 2.53333C0.454056 2.74176 0.285464 2.9908 0.17094 3.26565C0.0564173 3.54051 -0.00170115 3.83558 3.79043e-05 4.13333V37.7778C3.79043e-05 38.3671 0.234164 38.9324 0.650911 39.3491C1.06766 39.7659 1.63289 40 2.22226 40C2.81163 40 3.37686 39.7659 3.7936 39.3491C4.21035 38.9324 4.44448 38.3671 4.44448 37.7778V28.2222C6.21521 27.5443 8.10551 27.2343 10 27.3111C12.4076 27.4418 14.7682 28.0301 16.9556 29.0444C19.6578 30.2942 22.5806 30.9965 25.5556 31.1111C28.2345 31.2123 30.8994 30.6793 33.3333 29.5556C33.9893 29.2474 34.5455 28.7611 34.9384 28.152C35.3314 27.543 35.5452 26.8358 35.5556 26.1111V6.91111C35.5548 6.29105 35.4074 5.67997 35.1255 5.12771C34.8436 4.57545 34.4351 4.09766 33.9333 3.73333ZM31.1111 25.7556C29.3397 26.4311 27.4499 26.741 25.5556 26.6667C23.145 26.5389 20.7825 25.9426 18.6 24.9111C15.8927 23.6794 12.972 22.9851 10 22.8667C8.12781 22.8344 6.2596 23.0511 4.44448 23.5111V5.37778C6.21107 4.68297 8.10337 4.36506 10 4.44444C12.4106 4.57218 14.7731 5.16848 16.9556 6.2C19.6629 7.43167 22.5836 8.12599 25.5556 8.24444C27.4289 8.27211 29.2975 8.04788 31.1111 7.57778V25.7556Z" fill="#222222"/>
</svg>
