<svg width="48" height="40" viewBox="0 0 48 40" fill="none" xmlns="http://www.w3.org/2000/svg">
<path d="M23.7838 40C23.4708 40.0018 23.1606 39.9424 22.8708 39.8253C22.5811 39.7082 22.3176 39.5357 22.0954 39.3176L3.61783 21.0112C1.30008 18.6939 0 15.5653 0 12.3051C0 9.04485 1.30008 5.91628 3.61783 3.59899C5.95371 1.29424 9.11788 0 12.4167 0C15.7154 0 18.8796 1.29424 21.2155 3.59899L23.7838 6.14023L26.3521 3.59899C28.688 1.29424 31.8521 0 35.1509 0C38.4497 0 41.6139 1.29424 43.9497 3.59899C46.2675 5.91628 47.5676 9.04485 47.5676 12.3051C47.5676 15.5653 46.2675 18.6939 43.9497 21.0112L25.4722 39.3176C25.25 39.5357 24.9865 39.7082 24.6967 39.8253C24.407 39.9424 24.0968 40.0018 23.7838 40ZM12.4167 4.7049C11.41 4.70039 10.4124 4.89356 9.48167 5.27323C8.55097 5.6529 7.70565 6.21152 6.99468 6.91672C5.55847 8.34528 4.75225 10.2783 4.75225 12.2933C4.75225 14.3083 5.55847 16.2414 6.99468 17.67L23.7838 34.3057L40.5729 17.67C42.0091 16.2414 42.8153 14.3083 42.8153 12.2933C42.8153 10.2783 42.0091 8.34528 40.5729 6.91672C39.1072 5.54659 37.1673 4.78325 35.1509 4.78325C33.1346 4.78325 31.1946 5.54659 29.7289 6.91672L25.4722 11.1521C25.2511 11.3727 24.9881 11.5477 24.6983 11.6672C24.4085 11.7866 24.0977 11.8481 23.7838 11.8481C23.4699 11.8481 23.159 11.7866 22.8692 11.6672C22.5794 11.5477 22.3164 11.3727 22.0954 11.1521L17.8386 6.91672C17.1277 6.21152 16.2823 5.6529 15.3516 5.27323C14.4209 4.89356 13.4233 4.70039 12.4167 4.7049Z" fill="#222222"/>
</svg>
